# xmcd CD database file generated by MAGIX-FreeDB-MP3_Maker_deluxe v2.0beta1
# 
# Track frame offsets:
#      150
#      32982
#      49195
#      63997
#      92682
#      106012
#      126252
# 
# Disc length: 1870 seconds
# 
# Revision: 6 
# Processed by: cddbd v1.5.2PL0 Copyright (c) Steve Scherf et al.
# Submitted via: MAGIX-FreeDB-MP3_Maker_deluxe v2.0beta1
# 
DISCID=58074c07
DTITLE=The Mavericks - It's Now! It's Live!
DYEAR=1997
DGENRE=Country
TTITLE0=The Mavericks - All You Ever Do Is Bring Me Down
TTITLE1=The Mavericks - (Tonight) The Bottle Let Me Down
TTITLE2=The Mavericks - There Goes My Heart
TTITLE3=The Mavericks - From Hell To Paradise/Guantanamera
TTITLE4=The Mavericks - Rancho Grande
TTITLE5=The Mavericks - What A Crying Shame
TTITLE6=The Mavericks - I Don't Care If You Love Me Anymore (Studio Version)
EXTD=
EXTT0=
EXTT1=
EXTT2=
EXTT3=
EXTT4=
EXTT5=
EXTT6=
PLAYORDER=
